<svg width="1000" height="1000" viewBox="0 0 1000 1000" fill="none" xmlns="http://www.w3.org/2000/svg">
<rect width="1000" height="1000" fill="#2D313C00"/>
<path d="M487.562 508.458H511.513L507.287 454.92H489.676L487.562 508.458Z" fill="white"/>
<path d="M489.676 429.56H505.878L504.469 393.633H490.38L489.676 429.56Z" fill="white"/>
<path d="M490.38 376.022H504.469L503.764 354.889H491.084L490.38 376.022Z" fill="white"/>
<path d="M491.084 340.8H503.764L503.06 328.12H491.789L491.084 340.8Z" fill="white"/>
<path d="M491.789 321.076H503.06L502.708 316.144L502.356 311.213H492.493L491.789 321.076Z" fill="white"/>
<path d="M492.493 302.76H502.356L501.651 294.307H493.198L492.493 302.76Z" fill="white"/>
<path d="M493.902 285.853H500.947C502.356 234.429 555.893 224.567 557.302 221.749C511.654 238.092 494.607 263.311 493.902 285.853Z" fill="white"/>
<path d="M221.987 528.887H129C222.221 451.633 413.973 290.235 440.364 268.242C473.473 242.178 527.716 221.749 549.553 221.749C528.045 231.044 517.475 236.177 496.72 258.38C466.429 290.784 455.393 444.353 446 528.887H381.191C409.369 449.754 467.486 295.011 469.951 289.376C474.882 278.104 484.613 244.996 549.553 221.749C512.922 231.877 481.659 256.267 464.316 280.218C449.522 300.647 381.896 447.641 344.56 528.887H268.48L451.636 283.036C474.882 251.336 507.991 230.907 549.553 221.749C508.696 225.271 460.089 258.38 434.729 287.262C422.564 301.117 285.621 452.337 221.987 528.887Z" fill="url(#paint0_linear_1_94)"/>
<path d="M770.044 529.591H871.484C778.263 452.337 590.271 315.44 567.5 283.036C561.395 274.347 548.823 255.965 555.189 243.587C567.869 218.931 604.5 216.818 617.18 214C544.622 218.227 528.667 234.318 517.149 256.971C496.015 298.533 542.978 445.058 552.371 529.591H618C589.822 450.459 528.263 306.125 525.602 291.489C522.784 275.991 519.569 253.931 535.464 239.36C552.371 223.862 583.367 216.113 617.18 214C599.569 216.201 569.278 218.227 547.44 234.429C533.64 244.667 529.124 260.493 534.055 283.036C539.676 308.729 616.475 448.345 653.811 529.591H729.891L546.735 286.558C537.578 271.06 535.382 248.425 550.258 235.838C568.573 220.34 594.638 216.818 617.18 214C596.974 216.818 560.222 222.827 550.258 243.587C541.804 261.198 551.286 281.119 560.12 292.898C577.027 315.44 706.41 453.042 770.044 529.591Z" fill="url(#paint1_linear_1_94)"/>
<path d="M52 659.864V552.153H74.7728V596.595H121.002V552.153H143.722V659.864H121.002V615.37H74.7728V659.864H52Z" fill="#FCFCE0"/>
<path d="M162.077 659.864V579.081H184.482V659.864H162.077ZM173.332 568.668C170.001 568.668 167.144 567.563 164.76 565.354C162.41 563.11 161.236 560.428 161.236 557.308C161.236 554.222 162.41 551.575 164.76 549.366C167.144 547.122 170.001 546 173.332 546C176.663 546 179.503 547.122 181.852 549.366C184.237 551.575 185.429 554.222 185.429 557.308C185.429 560.428 184.237 563.11 181.852 565.354C179.503 567.563 176.663 568.668 173.332 568.668Z" fill="#FCFCE0"/>
<path d="M238.824 691.841C231.566 691.841 225.343 690.841 220.153 688.843C214.999 686.879 210.897 684.197 207.847 680.796C204.796 677.395 202.815 673.573 201.904 669.331L222.625 666.543C223.256 668.156 224.256 669.664 225.623 671.066C226.99 672.469 228.796 673.591 231.04 674.432C233.319 675.309 236.089 675.747 239.35 675.747C244.223 675.747 248.238 674.555 251.394 672.171C254.584 669.822 256.18 665.877 256.18 660.337V645.559H255.233C254.251 647.803 252.779 649.924 250.815 651.923C248.852 653.921 246.327 655.551 243.242 656.814C240.156 658.076 236.475 658.707 232.197 658.707C226.131 658.707 220.609 657.305 215.63 654.5C210.687 651.66 206.742 647.329 203.797 641.509C200.887 635.654 199.432 628.256 199.432 619.315C199.432 610.164 200.922 602.52 203.902 596.384C206.882 590.248 210.844 585.655 215.788 582.605C220.767 579.554 226.219 578.029 232.145 578.029C236.668 578.029 240.454 578.801 243.505 580.343C246.555 581.851 249.009 583.744 250.868 586.023C252.761 588.267 254.216 590.476 255.233 592.65H256.074V579.081H278.321V660.653C278.321 667.525 276.638 673.275 273.272 677.904C269.906 682.532 265.243 686.003 259.283 688.317C253.357 690.666 246.538 691.841 238.824 691.841ZM239.297 641.877C242.909 641.877 245.959 640.983 248.448 639.195C250.973 637.372 252.901 634.777 254.234 631.411C255.601 628.01 256.285 623.943 256.285 619.21C256.285 614.476 255.619 610.374 254.286 606.903C252.954 603.397 251.026 600.679 248.501 598.751C245.977 596.822 242.909 595.858 239.297 595.858C235.616 595.858 232.513 596.858 229.988 598.856C227.464 600.82 225.553 603.554 224.256 607.061C222.958 610.567 222.31 614.616 222.31 619.21C222.31 623.873 222.958 627.905 224.256 631.306C225.588 634.672 227.499 637.284 229.988 639.142C232.513 640.966 235.616 641.877 239.297 641.877Z" fill="#FCFCE0"/>
<path d="M318.555 613.161V659.864H296.15V552.153H317.924V593.334H318.871C320.694 588.565 323.639 584.831 327.706 582.131C331.773 579.397 336.875 578.029 343.011 578.029C348.621 578.029 353.512 579.256 357.684 581.711C361.892 584.13 365.153 587.619 367.467 592.177C369.816 596.7 370.973 602.117 370.938 608.428V659.864H348.533V612.425C348.568 607.446 347.306 603.572 344.746 600.802C342.222 598.032 338.681 596.647 334.123 596.647C331.072 596.647 328.372 597.296 326.023 598.593C323.709 599.89 321.886 601.784 320.554 604.273C319.256 606.728 318.59 609.69 318.555 613.161Z" fill="#FCFCE0"/>
<path d="M405.715 659.864L374.895 552.153H399.772L417.601 626.993H418.495L438.165 552.153H459.465L479.082 627.151H480.029L497.858 552.153H522.735L491.915 659.864H469.721L449.21 589.442H448.368L427.909 659.864H405.715Z" fill="#FCFCE0"/>
<path d="M548.86 661.389C543.706 661.389 539.113 660.495 535.081 658.707C531.049 656.884 527.858 654.202 525.509 650.66C523.195 647.084 522.038 642.631 522.038 637.302C522.038 632.814 522.862 629.045 524.51 625.994C526.158 622.944 528.402 620.489 531.242 618.631C534.082 616.773 537.307 615.37 540.919 614.424C544.565 613.477 548.387 612.811 552.384 612.425C557.082 611.934 560.869 611.478 563.744 611.058C566.619 610.602 568.706 609.936 570.003 609.059C571.3 608.183 571.949 606.885 571.949 605.167V604.852C571.949 601.521 570.897 598.944 568.793 597.121C566.724 595.297 563.779 594.386 559.957 594.386C555.925 594.386 552.717 595.28 550.333 597.068C547.949 598.821 546.371 601.03 545.6 603.695L524.878 602.012C525.93 597.103 527.998 592.86 531.084 589.284C534.169 585.673 538.149 582.903 543.023 580.974C547.931 579.011 553.611 578.029 560.063 578.029C564.551 578.029 568.846 578.555 572.948 579.607C577.085 580.659 580.749 582.289 583.94 584.498C587.166 586.707 589.708 589.547 591.566 593.018C593.424 596.454 594.353 600.574 594.353 605.378V659.864H573.106V648.662H572.475C571.177 651.186 569.442 653.413 567.268 655.341C565.094 657.234 562.482 658.725 559.432 659.812C556.381 660.863 552.857 661.389 548.86 661.389ZM555.277 645.927C558.573 645.927 561.483 645.278 564.007 643.981C566.532 642.649 568.513 640.86 569.95 638.616C571.388 636.373 572.107 633.831 572.107 630.99V622.418C571.405 622.874 570.441 623.294 569.214 623.68C568.022 624.031 566.672 624.364 565.164 624.679C563.657 624.96 562.149 625.223 560.641 625.468C559.134 625.679 557.766 625.871 556.539 626.047C553.909 626.432 551.613 627.046 549.649 627.887C547.686 628.729 546.161 629.868 545.074 631.306C543.987 632.709 543.443 634.462 543.443 636.565C543.443 639.616 544.548 641.947 546.757 643.56C549.001 645.138 551.841 645.927 555.277 645.927Z" fill="#FCFCE0"/>
<path d="M622.675 690.158C619.835 690.158 617.17 689.93 614.681 689.474C612.226 689.053 610.193 688.51 608.58 687.844L613.629 671.119C616.258 671.925 618.625 672.364 620.729 672.434C622.868 672.504 624.708 672.013 626.251 670.961C627.829 669.909 629.109 668.121 630.09 665.597L631.405 662.178L602.426 579.081H625.988L642.713 638.406H643.554L660.437 579.081H684.156L652.758 668.595C651.25 672.942 649.199 676.729 646.605 679.955C644.045 683.215 640.802 685.722 636.875 687.475C632.948 689.264 628.215 690.158 622.675 690.158Z" fill="#FCFCE0"/>
<path d="M696.042 659.864V552.153H738.537C746.707 552.153 753.667 553.714 759.417 556.834C765.167 559.92 769.55 564.215 772.565 569.719C775.616 575.189 777.141 581.5 777.141 588.653C777.141 595.806 775.598 602.117 772.513 607.587C769.427 613.056 764.957 617.316 759.101 620.367C753.281 623.417 746.234 624.942 737.959 624.942H710.873V606.692H734.277C738.66 606.692 742.272 605.939 745.112 604.431C747.987 602.888 750.125 600.767 751.528 598.067C752.965 595.332 753.684 592.194 753.684 588.653C753.684 585.077 752.965 581.956 751.528 579.291C750.125 576.592 747.987 574.505 745.112 573.033C742.236 571.525 738.59 570.771 734.172 570.771H718.815V659.864H696.042Z" fill="#FCFCE0"/>
<path d="M812.378 661.389C807.224 661.389 802.631 660.495 798.599 658.707C794.567 656.884 791.376 654.202 789.027 650.66C786.713 647.084 785.556 642.631 785.556 637.302C785.556 632.814 786.38 629.045 788.028 625.994C789.676 622.944 791.919 620.489 794.76 618.631C797.6 616.773 800.825 615.37 804.437 614.424C808.083 613.477 811.905 612.811 815.902 612.425C820.6 611.934 824.387 611.478 827.262 611.058C830.137 610.602 832.223 609.936 833.521 609.059C834.818 608.183 835.467 606.885 835.467 605.167V604.852C835.467 601.521 834.415 598.944 832.311 597.121C830.242 595.297 827.297 594.386 823.475 594.386C819.443 594.386 816.235 595.28 813.851 597.068C811.467 598.821 809.889 601.03 809.117 603.695L788.396 602.012C789.448 597.103 791.516 592.86 794.602 589.284C797.687 585.673 801.667 582.903 806.54 580.974C811.449 579.011 817.129 578.029 823.581 578.029C828.068 578.029 832.364 578.555 836.466 579.607C840.603 580.659 844.267 582.289 847.458 584.498C850.684 586.707 853.226 589.547 855.084 593.018C856.942 596.454 857.871 600.574 857.871 605.378V659.864H836.624V648.662H835.993C834.695 651.186 832.96 653.413 830.786 655.341C828.612 657.234 826 658.725 822.949 659.812C819.899 660.863 816.375 661.389 812.378 661.389ZM818.795 645.927C822.09 645.927 825 645.278 827.525 643.981C830.049 642.649 832.03 640.86 833.468 638.616C834.906 636.373 835.624 633.831 835.624 630.99V622.418C834.923 622.874 833.959 623.294 832.732 623.68C831.54 624.031 830.19 624.364 828.682 624.679C827.174 624.96 825.667 625.223 824.159 625.468C822.651 625.679 821.284 625.871 820.057 626.047C817.427 626.432 815.131 627.046 813.167 627.887C811.204 628.729 809.678 629.868 808.591 631.306C807.505 632.709 806.961 634.462 806.961 636.565C806.961 639.616 808.066 641.947 810.274 643.56C812.518 645.138 815.358 645.927 818.795 645.927Z" fill="#FCFCE0"/>
<path d="M886.193 690.158C883.353 690.158 880.688 689.93 878.198 689.474C875.744 689.053 873.711 688.51 872.098 687.844L877.147 671.119C879.776 671.925 882.143 672.364 884.247 672.434C886.385 672.504 888.226 672.013 889.769 670.961C891.347 669.909 892.627 668.121 893.608 665.597L894.923 662.178L865.944 579.081H889.506L906.231 638.406H907.072L923.955 579.081H947.674L916.276 668.595C914.768 672.942 912.717 676.729 910.122 679.955C907.563 683.215 904.32 685.722 900.393 687.475C896.466 689.264 891.732 690.158 886.193 690.158Z" fill="#FCFCE0"/>
<path d="M165 736.878V707.403H175.439C177.718 707.403 179.606 707.82 181.102 708.655C182.599 709.49 183.719 710.632 184.463 712.08C185.207 713.52 185.578 715.141 185.578 716.945C185.578 718.758 185.202 720.389 184.449 721.838C183.705 723.277 182.58 724.419 181.074 725.263C179.577 726.098 177.694 726.515 175.425 726.515H168.246V722.745H175.025C176.464 722.745 177.632 722.495 178.528 721.996C179.424 721.488 180.082 720.797 180.502 719.924C180.921 719.051 181.131 718.058 181.131 716.945C181.131 715.832 180.921 714.844 180.502 713.98C180.082 713.117 179.42 712.44 178.514 711.951C177.618 711.461 176.436 711.217 174.967 711.217H169.419V736.878H165Z" fill="#FCFCE0"/>
<path d="M190.126 736.878H185.435L195.975 707.403H201.08L211.62 736.878H206.929L198.649 712.757H198.42L190.126 736.878ZM190.912 725.335H206.128V729.077H190.912V725.335Z" fill="#FCFCE0"/>
<path d="M210.601 707.403H215.62L223.271 720.802H223.585L231.236 707.403H236.256L225.63 725.306V736.878H221.226V725.306L210.601 707.403Z" fill="#FCFCE0"/>
<path d="M240.428 707.403H245.791L255.114 730.315H255.458L264.782 707.403H270.144V736.878H265.94V715.549H265.668L257.031 736.834H253.541L244.904 715.534H244.632V736.878H240.428V707.403Z" fill="#FCFCE0"/>
<path d="M276.569 736.878V707.403H294.931V711.231H280.988V720.212H293.972V724.026H280.988V733.049H295.102V736.878H276.569Z" fill="#FCFCE0"/>
<path d="M324.472 707.403V736.878H320.41L305.524 715.261H305.252V736.878H300.833V707.403H304.923L319.824 729.048H320.096V707.403H324.472Z" fill="#FCFCE0"/>
<path d="M329.473 711.231V707.403H352.14V711.231H343.002V736.878H338.597V711.231H329.473Z" fill="#FCFCE0"/>
<path d="M367.806 736.878V707.403H378.245C380.524 707.403 382.411 707.82 383.908 708.655C385.405 709.49 386.525 710.632 387.269 712.08C388.012 713.52 388.384 715.141 388.384 716.945C388.384 718.758 388.008 720.389 387.254 721.838C386.511 723.277 385.386 724.419 383.88 725.263C382.383 726.098 380.5 726.515 378.231 726.515H371.052V722.745H377.83C379.27 722.745 380.438 722.495 381.334 721.996C382.23 721.488 382.888 720.797 383.308 719.924C383.727 719.051 383.937 718.058 383.937 716.945C383.937 715.832 383.727 714.844 383.308 713.98C382.888 713.117 382.225 712.44 381.32 711.951C380.424 711.461 379.241 711.217 377.773 711.217H372.225V736.878H367.806Z" fill="#FCFCE0"/>
<path d="M393.565 736.878V707.403H404.004C406.273 707.403 408.156 707.796 409.653 708.583C411.159 709.37 412.284 710.459 413.028 711.85C413.771 713.232 414.143 714.829 414.143 716.643C414.143 718.446 413.766 720.034 413.013 721.406C412.27 722.769 411.145 723.829 409.638 724.587C408.142 725.345 406.259 725.724 403.99 725.724H396.081V721.896H403.589C405.019 721.896 406.182 721.689 407.079 721.277C407.984 720.864 408.647 720.265 409.066 719.478C409.486 718.691 409.696 717.746 409.696 716.643C409.696 715.53 409.481 714.565 409.052 713.75C408.633 712.934 407.97 712.311 407.064 711.879C406.168 711.438 404.991 711.217 403.532 711.217H397.983V736.878H393.565ZM408.022 723.579L415.258 736.878H410.225L403.132 723.579H408.022Z" fill="#FCFCE0"/>
<path d="M444.961 722.14C444.961 725.287 444.388 727.993 443.244 730.257C442.1 732.512 440.532 734.249 438.54 735.467C436.557 736.676 434.302 737.281 431.775 737.281C429.24 737.281 426.975 736.676 424.983 735.467C423 734.249 421.436 732.507 420.292 730.243C419.148 727.979 418.576 725.278 418.576 722.14C418.576 718.993 419.148 716.292 420.292 714.038C421.436 711.773 423 710.037 424.983 708.828C426.975 707.609 429.24 707 431.775 707C434.302 707 436.557 707.609 438.54 708.828C440.532 710.037 442.1 711.773 443.244 714.038C444.388 716.292 444.961 718.993 444.961 722.14ZM440.585 722.14C440.585 719.742 440.198 717.722 439.426 716.081C438.664 714.431 437.615 713.184 436.28 712.339C434.955 711.485 433.453 711.059 431.775 711.059C430.088 711.059 428.582 711.485 427.257 712.339C425.931 713.184 424.883 714.431 424.11 716.081C423.348 717.722 422.966 719.742 422.966 722.14C422.966 724.539 423.348 726.563 424.11 728.214C424.883 729.854 425.931 731.102 427.257 731.956C428.582 732.8 430.088 733.222 431.775 733.222C433.453 733.222 434.955 732.8 436.28 731.956C437.615 731.102 438.664 729.854 439.426 728.214C440.198 726.563 440.585 724.539 440.585 722.14Z" fill="#FCFCE0"/>
<path d="M474.795 716.988H470.333C470.162 716.029 469.842 715.184 469.375 714.455C468.908 713.726 468.336 713.107 467.659 712.598C466.982 712.09 466.224 711.706 465.385 711.447C464.556 711.188 463.674 711.059 462.74 711.059C461.052 711.059 459.541 711.485 458.206 712.339C456.881 713.193 455.832 714.445 455.06 716.096C454.298 717.746 453.916 719.761 453.916 722.14C453.916 724.539 454.298 726.563 455.06 728.214C455.832 729.864 456.886 731.111 458.221 731.956C459.555 732.8 461.057 733.222 462.725 733.222C463.65 733.222 464.527 733.097 465.357 732.848C466.196 732.589 466.953 732.21 467.63 731.711C468.307 731.212 468.879 730.603 469.346 729.883C469.823 729.154 470.152 728.319 470.333 727.379L474.795 727.393C474.557 728.842 474.094 730.176 473.408 731.394C472.731 732.603 471.859 733.649 470.791 734.532C469.733 735.405 468.522 736.081 467.158 736.561C465.795 737.041 464.308 737.281 462.697 737.281C460.161 737.281 457.901 736.676 455.918 735.467C453.935 734.249 452.372 732.507 451.228 730.243C450.093 727.979 449.526 725.278 449.526 722.14C449.526 718.993 450.098 716.292 451.242 714.038C452.386 711.773 453.95 710.037 455.933 708.828C457.916 707.609 460.17 707 462.697 707C464.251 707 465.7 707.225 467.044 707.676C468.398 708.118 469.613 708.77 470.691 709.634C471.768 710.488 472.659 711.533 473.365 712.771C474.07 713.999 474.547 715.405 474.795 716.988Z" fill="#FCFCE0"/>
<path d="M480.082 736.878V707.403H498.444V711.231H484.501V720.212H497.486V724.026H484.501V733.049H498.616V736.878H480.082Z" fill="#FCFCE0"/>
<path d="M520.32 715.146C520.168 713.783 519.539 712.728 518.433 711.98C517.327 711.222 515.935 710.843 514.257 710.843C513.056 710.843 512.017 711.035 511.14 711.418C510.262 711.793 509.581 712.311 509.095 712.973C508.618 713.625 508.38 714.369 508.38 715.203C508.38 715.904 508.542 716.508 508.866 717.017C509.199 717.525 509.633 717.952 510.167 718.298C510.711 718.633 511.292 718.916 511.912 719.147C512.531 719.367 513.127 719.55 513.699 719.694L516.559 720.442C517.494 720.672 518.452 720.984 519.434 721.378C520.416 721.771 521.326 722.289 522.165 722.932C523.004 723.575 523.681 724.371 524.196 725.321C524.72 726.271 524.982 727.408 524.982 728.732C524.982 730.401 524.553 731.884 523.695 733.179C522.847 734.474 521.612 735.496 519.992 736.244C518.38 736.993 516.431 737.367 514.143 737.367C511.95 737.367 510.053 737.017 508.451 736.316C506.849 735.616 505.596 734.623 504.69 733.337C503.784 732.042 503.284 730.507 503.188 728.732H507.622C507.707 729.797 508.051 730.684 508.651 731.394C509.261 732.095 510.038 732.618 510.982 732.963C511.936 733.299 512.98 733.467 514.114 733.467C515.363 733.467 516.474 733.27 517.446 732.877C518.428 732.474 519.2 731.917 519.763 731.207C520.325 730.488 520.606 729.648 520.606 728.689C520.606 727.815 520.359 727.101 519.863 726.544C519.377 725.988 518.714 725.527 517.875 725.163C517.046 724.798 516.107 724.477 515.058 724.198L511.597 723.248C509.252 722.606 507.393 721.661 506.02 720.413C504.657 719.166 503.975 717.516 503.975 715.462C503.975 713.764 504.433 712.282 505.348 711.015C506.263 709.749 507.502 708.765 509.066 708.065C510.629 707.355 512.393 707 514.357 707C516.34 707 518.09 707.35 519.605 708.051C521.131 708.751 522.332 709.715 523.209 710.943C524.086 712.162 524.544 713.563 524.582 715.146H520.32Z" fill="#FCFCE0"/>
<path d="M546.237 715.146C546.084 713.783 545.455 712.728 544.349 711.98C543.243 711.222 541.851 710.843 540.173 710.843C538.972 710.843 537.933 711.035 537.056 711.418C536.179 711.793 535.497 712.311 535.011 712.973C534.534 713.625 534.296 714.369 534.296 715.203C534.296 715.904 534.458 716.508 534.782 717.017C535.116 717.525 535.549 717.952 536.083 718.298C536.627 718.633 537.208 718.916 537.828 719.147C538.447 719.367 539.043 719.55 539.615 719.694L542.475 720.442C543.41 720.672 544.368 720.984 545.35 721.378C546.332 721.771 547.242 722.289 548.081 722.932C548.92 723.575 549.597 724.371 550.112 725.321C550.636 726.271 550.898 727.408 550.898 728.732C550.898 730.401 550.469 731.884 549.611 733.179C548.763 734.474 547.528 735.496 545.908 736.244C544.296 736.993 542.347 737.367 540.059 737.367C537.866 737.367 535.969 737.017 534.367 736.316C532.765 735.616 531.512 734.623 530.606 733.337C529.7 732.042 529.2 730.507 529.105 728.732H533.538C533.623 729.797 533.967 730.684 534.567 731.394C535.177 732.095 535.954 732.618 536.898 732.963C537.852 733.299 538.896 733.467 540.03 733.467C541.279 733.467 542.39 733.27 543.362 732.877C544.344 732.474 545.116 731.917 545.679 731.207C546.241 730.488 546.523 729.648 546.523 728.689C546.523 727.815 546.275 727.101 545.779 726.544C545.293 725.988 544.63 725.527 543.791 725.163C542.962 724.798 542.023 724.477 540.974 724.198L537.513 723.248C535.168 722.606 533.309 721.661 531.936 720.413C530.573 719.166 529.891 717.516 529.891 715.462C529.891 713.764 530.349 712.282 531.264 711.015C532.179 709.749 533.419 708.765 534.982 708.065C536.546 707.355 538.309 707 540.273 707C542.256 707 544.006 707.35 545.521 708.051C547.047 708.751 548.248 709.715 549.125 710.943C550.002 712.162 550.46 713.563 550.498 715.146H546.237Z" fill="#FCFCE0"/>
<path d="M560.598 707.403V736.878H556.179V707.403H560.598Z" fill="#FCFCE0"/>
<path d="M590.672 707.403V736.878H586.61L571.724 715.261H571.452V736.878H567.033V707.403H571.123L586.024 729.048H586.296V707.403H590.672Z" fill="#FCFCE0"/>
<path d="M616.938 716.715C616.662 715.841 616.29 715.059 615.823 714.369C615.365 713.668 614.817 713.073 614.178 712.584C613.539 712.085 612.81 711.706 611.99 711.447C611.18 711.188 610.288 711.059 609.316 711.059C607.667 711.059 606.179 711.485 604.854 712.339C603.529 713.193 602.48 714.445 601.708 716.096C600.945 717.736 600.564 719.746 600.564 722.126C600.564 724.515 600.95 726.535 601.722 728.185C602.495 729.835 603.553 731.087 604.897 731.941C606.241 732.795 607.771 733.222 609.488 733.222C611.08 733.222 612.467 732.896 613.649 732.243C614.841 731.591 615.761 730.67 616.409 729.48C617.067 728.281 617.396 726.87 617.396 725.249L618.54 725.465H610.16V721.795H621.672V725.148C621.672 727.624 621.147 729.773 620.098 731.596C619.059 733.409 617.62 734.81 615.78 735.798C613.949 736.786 611.852 737.281 609.488 737.281C606.837 737.281 604.511 736.666 602.509 735.438C600.516 734.21 598.962 732.469 597.847 730.214C596.731 727.95 596.174 725.263 596.174 722.155C596.174 719.804 596.498 717.693 597.146 715.822C597.794 713.951 598.705 712.363 599.878 711.059C601.06 709.744 602.447 708.741 604.039 708.051C605.641 707.35 607.39 707 609.287 707C610.87 707 612.343 707.235 613.706 707.705C615.079 708.175 616.299 708.842 617.367 709.706C618.444 710.569 619.336 711.596 620.041 712.786C620.747 713.966 621.223 715.275 621.471 716.715H616.938Z" fill="#FCFCE0"/>
<path d="M661.577 707.403V736.878H657.516L642.629 715.261H642.357V736.878H637.938V707.403H642.028L656.929 729.048H657.201V707.403H661.577Z" fill="#FCFCE0"/>
<path d="M668.023 736.878V707.403H686.385V711.231H672.442V720.212H685.427V724.026H672.442V733.049H686.556V736.878H668.023Z" fill="#FCFCE0"/>
<path d="M690.843 711.231V707.403H713.509V711.231H704.371V736.878H699.967V711.231H690.843Z" fill="#FCFCE0"/>
<path d="M724.253 736.878L716.13 707.403H720.777L726.483 730.229H726.755L732.69 707.403H737.294L743.229 730.243H743.501L749.193 707.403H753.854L745.717 736.878H741.27L735.107 714.8H734.878L728.714 736.878H724.253Z" fill="#FCFCE0"/>
<path d="M781.869 722.14C781.869 725.287 781.297 727.993 780.153 730.257C779.009 732.512 777.441 734.249 775.448 735.467C773.465 736.676 771.21 737.281 768.684 737.281C766.148 737.281 763.884 736.676 761.891 735.467C759.908 734.249 758.345 732.507 757.201 730.243C756.057 727.979 755.485 725.278 755.485 722.14C755.485 718.993 756.057 716.292 757.201 714.038C758.345 711.773 759.908 710.037 761.891 708.828C763.884 707.609 766.148 707 768.684 707C771.21 707 773.465 707.609 775.448 708.828C777.441 710.037 779.009 711.773 780.153 714.038C781.297 716.292 781.869 718.993 781.869 722.14ZM777.493 722.14C777.493 719.742 777.107 717.722 776.335 716.081C775.572 714.431 774.523 713.184 773.189 712.339C771.863 711.485 770.362 711.059 768.684 711.059C766.997 711.059 765.49 711.485 764.165 712.339C762.84 713.184 761.791 714.431 761.019 716.081C760.256 717.722 759.875 719.742 759.875 722.14C759.875 724.539 760.256 726.563 761.019 728.214C761.791 729.854 762.84 731.102 764.165 731.956C765.49 732.8 766.997 733.222 768.684 733.222C770.362 733.222 771.863 732.8 773.189 731.956C774.523 731.102 775.572 729.854 776.335 728.214C777.107 726.563 777.493 724.539 777.493 722.14Z" fill="#FCFCE0"/>
<path d="M787.378 736.878V707.403H797.818C800.087 707.403 801.97 707.796 803.466 708.583C804.973 709.37 806.098 710.459 806.841 711.85C807.585 713.232 807.957 714.829 807.957 716.643C807.957 718.446 807.58 720.034 806.827 721.406C806.083 722.769 804.958 723.829 803.452 724.587C801.955 725.345 800.072 725.724 797.803 725.724H789.895V721.896H797.403C798.833 721.896 799.996 721.689 800.892 721.277C801.798 720.864 802.461 720.265 802.88 719.478C803.3 718.691 803.509 717.746 803.509 716.643C803.509 715.53 803.295 714.565 802.866 713.75C802.446 712.934 801.784 712.311 800.878 711.879C799.982 711.438 798.804 711.217 797.346 711.217H791.797V736.878H787.378ZM801.836 723.579L809.072 736.878H804.038L796.945 723.579H801.836Z" fill="#FCFCE0"/>
<path d="M813.334 736.878V707.403H817.753V721.478H818.11L830.394 707.403H835.957L824.145 720.672L836 736.878H830.68L821.213 723.709L817.753 727.71V736.878H813.334Z" fill="#FCFCE0"/>
<path d="M269.131 756.036V785.511H264.712V756.036H269.131Z" fill="#FCFCE0"/>
<path d="M299.205 756.036V785.511H295.143L280.257 763.894H279.985V785.511H275.566V756.036H279.656L294.557 777.681H294.829V756.036H299.205Z" fill="#FCFCE0"/>
<path d="M340.633 765.621H336.171C336 764.662 335.68 763.817 335.213 763.088C334.746 762.359 334.174 761.74 333.497 761.232C332.82 760.723 332.062 760.339 331.223 760.08C330.394 759.821 329.512 759.692 328.578 759.692C326.89 759.692 325.379 760.119 324.045 760.972C322.719 761.826 321.671 763.079 320.898 764.729C320.136 766.379 319.754 768.394 319.754 770.773C319.754 773.172 320.136 775.196 320.898 776.847C321.671 778.497 322.724 779.744 324.059 780.589C325.394 781.433 326.895 781.855 328.564 781.855C329.488 781.855 330.365 781.73 331.195 781.481C332.034 781.222 332.792 780.843 333.469 780.344C334.145 779.845 334.717 779.236 335.185 778.516C335.661 777.787 335.99 776.952 336.171 776.012L340.633 776.026C340.395 777.475 339.932 778.809 339.246 780.027C338.569 781.236 337.697 782.282 336.629 783.165C335.571 784.038 334.36 784.714 332.997 785.194C331.633 785.674 330.146 785.914 328.535 785.914C325.999 785.914 323.739 785.309 321.757 784.1C319.774 782.882 318.21 781.14 317.066 778.876C315.931 776.612 315.364 773.911 315.364 770.773C315.364 767.626 315.936 764.925 317.08 762.671C318.224 760.406 319.788 758.67 321.771 757.461C323.754 756.242 326.009 755.633 328.535 755.633C330.089 755.633 331.538 755.859 332.882 756.31C334.236 756.751 335.452 757.403 336.529 758.267C337.606 759.121 338.498 760.167 339.203 761.404C339.909 762.632 340.385 764.038 340.633 765.621Z" fill="#FCFCE0"/>
<path d="M348.198 785.511H343.508L354.047 756.036H359.152L369.692 785.511H365.001L356.721 761.39H356.492L348.198 785.511ZM348.985 773.968H364.2V777.71H348.985V773.968Z" fill="#FCFCE0"/>
<path d="M397.56 756.036V785.511H393.498L378.612 763.894H378.34V785.511H373.921V756.036H378.011L392.912 777.681H393.184V756.036H397.56Z" fill="#FCFCE0"/>
<path d="M427.644 756.036V785.511H423.583L408.696 763.894H408.425V785.511H404.006V756.036H408.096L422.997 777.681H423.268V756.036H427.644Z" fill="#FCFCE0"/>
<path d="M436.564 785.511H431.874L442.413 756.036H447.518L458.058 785.511H453.367L445.087 761.39H444.859L436.564 785.511ZM437.351 773.968H452.567V777.71H437.351V773.968Z" fill="#FCFCE0"/>
<path d="M462.287 785.511V756.036H473.013C475.091 756.036 476.812 756.381 478.175 757.072C479.538 757.754 480.559 758.679 481.235 759.85C481.912 761.011 482.251 762.321 482.251 763.779C482.251 765.007 482.027 766.043 481.579 766.888C481.131 767.722 480.53 768.394 479.777 768.902C479.033 769.401 478.213 769.766 477.317 769.996V770.284C478.29 770.332 479.238 770.649 480.163 771.234C481.097 771.81 481.869 772.63 482.48 773.695C483.09 774.76 483.395 776.055 483.395 777.581C483.395 779.087 483.042 780.44 482.337 781.639C481.641 782.829 480.563 783.774 479.105 784.474C477.646 785.165 475.782 785.511 473.513 785.511H462.287ZM466.706 781.697H473.084C475.201 781.697 476.717 781.284 477.632 780.459C478.547 779.634 479.005 778.603 479.005 777.365C479.005 776.434 478.771 775.58 478.304 774.803C477.837 774.026 477.169 773.407 476.302 772.947C475.444 772.486 474.424 772.256 473.241 772.256H466.706V781.697ZM466.706 768.787H472.627C473.618 768.787 474.509 768.595 475.301 768.212C476.102 767.828 476.736 767.291 477.203 766.6C477.679 765.899 477.918 765.074 477.918 764.124C477.918 762.906 477.493 761.884 476.645 761.059C475.796 760.234 474.495 759.821 472.741 759.821H466.706V768.787Z" fill="#FCFCE0"/>
<path d="M493.055 756.036V785.511H488.636V756.036H493.055Z" fill="#FCFCE0"/>
<path d="M515.464 763.779C515.311 762.416 514.682 761.361 513.576 760.613C512.47 759.855 511.078 759.476 509.4 759.476C508.199 759.476 507.16 759.668 506.283 760.051C505.406 760.426 504.724 760.944 504.238 761.606C503.761 762.258 503.523 763.002 503.523 763.836C503.523 764.537 503.685 765.141 504.009 765.65C504.343 766.158 504.776 766.585 505.31 766.931C505.854 767.267 506.435 767.55 507.055 767.78C507.675 768.001 508.271 768.183 508.843 768.327L511.703 769.075C512.637 769.305 513.595 769.617 514.577 770.011C515.559 770.404 516.469 770.922 517.308 771.565C518.147 772.208 518.824 773.004 519.339 773.954C519.863 774.904 520.126 776.041 520.126 777.365C520.126 779.034 519.697 780.517 518.839 781.812C517.99 783.107 516.755 784.129 515.135 784.877C513.524 785.626 511.574 786 509.286 786C507.093 786 505.196 785.65 503.594 784.949C501.993 784.249 500.739 783.256 499.833 781.97C498.928 780.675 498.427 779.14 498.332 777.365H502.765C502.851 778.43 503.194 779.317 503.794 780.027C504.405 780.728 505.182 781.251 506.125 781.596C507.079 781.932 508.123 782.1 509.257 782.1C510.506 782.1 511.617 781.903 512.589 781.51C513.571 781.107 514.343 780.55 514.906 779.84C515.468 779.121 515.75 778.281 515.75 777.322C515.75 776.449 515.502 775.734 515.006 775.177C514.52 774.621 513.857 774.16 513.018 773.796C512.189 773.431 511.25 773.11 510.201 772.831L506.74 771.882C504.395 771.239 502.536 770.294 501.163 769.046C499.8 767.799 499.118 766.149 499.118 764.096C499.118 762.397 499.576 760.915 500.491 759.648C501.406 758.382 502.646 757.398 504.209 756.698C505.773 755.988 507.536 755.633 509.5 755.633C511.483 755.633 513.233 755.983 514.749 756.684C516.274 757.384 517.475 758.348 518.352 759.576C519.229 760.795 519.687 762.196 519.725 763.779H515.464Z" fill="#FCFCE0"/>
<path d="M540.482 756.036V785.511H536.064V756.036H540.482Z" fill="#FCFCE0"/>
<path d="M570.556 756.036V785.511H566.495L551.608 763.894H551.336V785.511H546.918V756.036H551.008L565.909 777.681H566.18V756.036H570.556Z" fill="#FCFCE0"/>
<path d="M586.483 785.511H577.002V756.036H586.784C589.653 756.036 592.118 756.626 594.177 757.806C596.236 758.977 597.814 760.661 598.911 762.858C600.016 765.045 600.569 767.67 600.569 770.73C600.569 773.8 600.012 776.439 598.896 778.646C597.79 780.852 596.189 782.551 594.091 783.74C591.994 784.921 589.458 785.511 586.483 785.511ZM581.421 781.625H586.24C588.471 781.625 590.325 781.203 591.803 780.358C593.281 779.504 594.387 778.272 595.121 776.66C595.855 775.038 596.222 773.062 596.222 770.73C596.222 768.418 595.855 766.456 595.121 764.844C594.396 763.232 593.314 762.009 591.875 761.174C590.435 760.339 588.648 759.922 586.512 759.922H581.421V781.625Z" fill="#FCFCE0"/>
<path d="M624.898 756.036H629.331V775.422C629.331 777.485 628.85 779.313 627.887 780.905C626.924 782.488 625.57 783.736 623.826 784.647C622.081 785.549 620.036 786 617.691 786C615.355 786 613.315 785.549 611.57 784.647C609.825 783.736 608.472 782.488 607.509 780.905C606.546 779.313 606.064 777.485 606.064 775.422V756.036H610.483V775.062C610.483 776.396 610.774 777.581 611.356 778.617C611.947 779.653 612.781 780.469 613.858 781.064C614.935 781.649 616.213 781.941 617.691 781.941C619.178 781.941 620.46 781.649 621.537 781.064C622.624 780.469 623.454 779.653 624.026 778.617C624.607 777.581 624.898 776.396 624.898 775.062V756.036Z" fill="#FCFCE0"/>
<path d="M651.729 763.779C651.577 762.416 650.948 761.361 649.842 760.613C648.736 759.855 647.344 759.476 645.666 759.476C644.465 759.476 643.426 759.668 642.548 760.051C641.671 760.426 640.99 760.944 640.503 761.606C640.027 762.258 639.788 763.002 639.788 763.836C639.788 764.537 639.951 765.141 640.275 765.65C640.608 766.158 641.042 766.585 641.576 766.931C642.119 767.267 642.701 767.55 643.321 767.78C643.94 768.001 644.536 768.183 645.108 768.327L647.968 769.075C648.903 769.305 649.861 769.617 650.843 770.011C651.825 770.404 652.735 770.922 653.574 771.565C654.413 772.208 655.09 773.004 655.605 773.954C656.129 774.904 656.391 776.041 656.391 777.365C656.391 779.034 655.962 780.517 655.104 781.812C654.256 783.107 653.021 784.129 651.4 784.877C649.789 785.626 647.84 786 645.552 786C643.359 786 641.462 785.65 639.86 784.949C638.258 784.249 637.005 783.256 636.099 781.97C635.193 780.675 634.693 779.14 634.597 777.365H639.031C639.116 778.43 639.46 779.317 640.06 780.027C640.67 780.728 641.447 781.251 642.391 781.596C643.345 781.932 644.388 782.1 645.523 782.1C646.772 782.1 647.883 781.903 648.855 781.51C649.837 781.107 650.609 780.55 651.172 779.84C651.734 779.121 652.015 778.281 652.015 777.322C652.015 776.449 651.767 775.734 651.272 775.177C650.786 774.621 650.123 774.16 649.284 773.796C648.455 773.431 647.515 773.11 646.467 772.831L643.006 771.882C640.661 771.239 638.802 770.294 637.429 769.046C636.066 767.799 635.384 766.149 635.384 764.096C635.384 762.397 635.842 760.915 636.757 759.648C637.672 758.382 638.911 757.398 640.475 756.698C642.038 755.988 643.802 755.633 645.766 755.633C647.749 755.633 649.498 755.983 651.014 756.684C652.54 757.384 653.741 758.348 654.618 759.576C655.495 760.795 655.953 762.196 655.991 763.779H651.729Z" fill="#FCFCE0"/>
<path d="M660.227 759.864V756.036H682.894V759.864H673.756V785.511H669.351V759.864H660.227Z" fill="#FCFCE0"/>
<path d="M687.902 785.511V756.036H698.342C700.611 756.036 702.494 756.429 703.99 757.216C705.497 758.003 706.622 759.092 707.365 760.483C708.109 761.865 708.481 763.462 708.481 765.276C708.481 767.079 708.104 768.667 707.351 770.039C706.607 771.402 705.482 772.462 703.976 773.22C702.479 773.978 700.596 774.357 698.327 774.357H690.419V770.529H697.927C699.357 770.529 700.52 770.322 701.416 769.91C702.322 769.497 702.985 768.898 703.404 768.111C703.824 767.324 704.033 766.379 704.033 765.276C704.033 764.163 703.819 763.198 703.39 762.383C702.97 761.567 702.308 760.944 701.402 760.512C700.506 760.071 699.329 759.85 697.87 759.85H692.321V785.511H687.902ZM702.36 772.213L709.596 785.511H704.562L697.469 772.213H702.36Z" fill="#FCFCE0"/>
<path d="M710.536 756.036H715.556L723.207 769.435H723.521L731.172 756.036H736.192L725.566 773.94V785.511H721.162V773.94L710.536 756.036Z" fill="#FCFCE0"/>
<defs>
<linearGradient id="paint0_linear_1_94" x1="245.938" y1="356.298" x2="534.76" y2="566.222" gradientUnits="userSpaceOnUse">
<stop offset="0.07" stop-color="#FCFCE0"/>
<stop offset="0.850101" stop-color="#BEEEB4"/>
</linearGradient>
<linearGradient id="paint1_linear_1_94" x1="486" y1="277" x2="894.027" y2="539.453" gradientUnits="userSpaceOnUse">
<stop stop-color="#EAFAC7"/>
<stop offset="1" stop-color="#31CD9E"/>
</linearGradient>
</defs>
</svg>
